/* XPM */
static char*kshow[]={
"32 32 19 1",
"h c #808080",
"o c #008000",
"c c #a0a0a0",
"q c #c3c3c3",
"i c #c0c000",
"l c #00ff00",
"j c #808000",
"n c #c0c0ff",
"# c #000000",
"g c #ffff00",
"d c #303030",
"p c #0000ff",
". c None",
"k c #c00000",
"e c #585858",
"f c #00c000",
"a c #dcdcdc",
"b c #ffffff",
"m c #ff0000",
"...................###..........",
".................##aaa#.........",
"...............##aaaaab#........",
".............##aaaaabcc#........",
"...........##aaaabbccdc#........",
".........##aaaaabcceeec#........",
".......##aaaaabccde#edc#........",
".....##aaaabbccde###eec#........",
"...##aaaabbccde#####eec#........",
".##aaaabbccee#######eec#........",
"#baaabbccee#########edc#........",
"#ebbbcced###fff###ggeec#........",
"#hhccee####fffffigggedc#........",
"#hhcca####fffffffgggeec#...e##e.",
"#hhcca####fffffffgggeec#..e####.",
"#hhcca###jfffffffgggeec#.e#####.",
"#hhcca###kfffffflgggedc#e#####hh",
"#hhcca##mkjffffgggg#eec#nbe##hhh",
"#hhcca##mmmko##gg######nbnn#hhh.",
"#hhcca#mmmmmm###bbbbbbb##n#hhh..",
"#hhcca#mmmm###bb#######bb##hh...",
"#hhccammm####b##ppppppp##b#hh...",
"#hhcca######b#ppp#####ppp#b#....",
"#hhcca######b#p#ennbnne###b#h...",
"#hhcca######b##nnnbnnnnnq#b#hh..",
"#hhcca###aa#eb#enbnnnnne#b##hhh.",
"#hhcca#aaaa#n#bqe#####eqb#p#hhh.",
"#hhccaaaacc#nn#ebbbbbbbe#pp#hhh.",
"#hhccaacc##h#nbq#######ppp#hhh..",
"#hhcccc##hhh.#qbbbnnnnppe#hhh...",
"h#hcc##hhhh...e#qbnnnnp#ehhh....",
".h###hhhh.......#######hhh......"};
