/* XPM */
static char*minikshow[]={
"16 16 21 1",
"a c #808080",
"d c #008000",
"f c #a0a0a0",
"j c #c3c3c3",
"r c #000080",
"m c #c0c000",
"h c #00ff00",
"e c #808000",
"s c #c0c0ff",
"c c #000000",
"p c #0000c0",
"i c #ffff00",
"k c #303030",
"q c #0000ff",
". c None",
"l c #c00000",
"# c #585858",
"g c #00c000",
"b c #dcdcdc",
"o c #ffffff",
"n c #ff0000",
"..........#.....",
"........abb#....",
"......abba##....",
"....abba#c##....",
"..abba#ccc##....",
"#bbaacdcce##....",
"#ffccdgghi##....",
"#fjccggggi##.kk.",
"#fjcldgghm##.kka",
"#fjcnnccjjaaoa#.",
"#fjllccjppppak..",
"#fjcccjqraapka..",
"#fjcajakbbbsarf.",
"#fjjj#saffffrpf.",
"#fja##ssasqqp#..",
".###...saqqra..."};
