/* XPM */
static char * mini_kshow_xpm[] = {
"16 16 12 1",
" 	c None",
".	c #C71BC30BC71B",
"X	c #000000000000",
"o	c #861700000000",
"O	c #FFFF82070000",
"+	c #596559655965",
"@	c #BEFBBEFBFFFF",
"#	c #861782078617",
"$	c #A699A289A699",
"%	c #FFFFDF7DAEBA",
"&	c #FFFFFFFFFFFF",
"*	c #FFFF00000000",
"                ",
"   .XX.  XXX.   ",
"  .oOOo+X@@@X.  ",
"  oOOOOo@@@@@X  ",
"  XOO#O#@@@@@X  ",
"  oOOX+#@XX@@X  ",
"   XOOO+X$@@X   ",
"  #XXXoOOXXXX#  ",
" $X #%O%OOO# X$ ",
" X #%O%OOOOO# X ",
" ##%O%O%OOOOO## ",
" XXX+##OOO#+XXX ",
"  $ $+$+O+$+$X  ",
"  XX$&&&&&&&$X# ",
" #X*XX&&&&X**** ",
"                "};
