/* XPM */
static char * kShow_xpm[] = {
"32 32 14 1",
" 	c None",
".	c #C71BC30BC71B",
"X	c #000000000000",
"o	c #596559655965",
"O	c #861700000000",
"+	c #FFFF82070000",
"@	c #A699A289A699",
"#	c #000000008617",
"$	c #BEFBBEFBFFFF",
"%	c #861782078617",
"&	c #FFFFAAAA5965",
"*	c #FFFFFFFFFFFF",
"=	c #FFFFBEFBBEFB",
"-	c #FFFF00000000",
"                                ",
"       .XXXXX.XXXX.XXXXX.       ",
"      oXO++XOXo@XoX#X$$#Xo      ",
"     oX+++XOO+XooX$##X$$$Xo     ",
"    .X+++ooO+++oX$$$$oo$$$X.    ",
"    XO++%XO++++X#$$$$$Xo$$#X    ",
"    X+++XO+++++XX$$$$$#X$$$X    ",
"    X++oo++++++XX$$$$$$#X$$X    ",
"    X+%XO+++Xo+XX$Xo$$$#X%$X    ",
"    XOXX++++XX+X#$XX$$$#XX@X    ",
"    .XXO++++++X.X$$$$$$#XXX.    ",
"     oXXO+++@OXooX$@$$#XXXo     ",
"    %XoXOOOOOXo&&oX###X@XoX     ",
"    X@*.XXXXX.&*&&.XXXXX.@XX    ",
"   %@***@@X&*&*&*&&&&%%@**@X%   ",
"   X****%X&*&*&*&&&&&&%%@**@X   ",
"  %@***%%&*&*&*&&&&&&&&%X@**%X  ",
"  X***%%&*&X&*&*&&&&X&&&%%X**X% ",
" %@**%%&*&*@%&*&&&&%@&&&&%%%@%X ",
" %**@%&*&*&*&*&*&&&&&&&&&&@%@%X ",
" X**@%*&*&*&*&*&*&&&&&&&&&%X%XX ",
" X@*%X&*&*&*&*&*&&&&&@%%XXXXXX  ",
"  XXX%X%X%X%%@*&&&&@%@=*@@X%    ",
"    X@******@@X%&&%%*@*@*@XX    ",
"    X%*********@%%@*@*@*@@XX%   ",
"    XX%*************@*@*@X@XXX  ",
"    X@XX@@*********@*@*@X@XXXOX ",
"   %X=%XXXXO@@****@*@*%X@XXOO=X ",
"   XX%XO-O-OOOX%XXXXOXXXOO=O=OX ",
"   XXX%-O-O-O-O-O%XOOXO=O=O=O=X ",
"   XXX-O-O-O-O-O-OX-OX=O=O=O=OX ",
"                                "};
