/* XPM */
static char*picback[]={
"22 22 10 1",
"c c #808080",
"f c #ffa858",
"h c #a0a0a0",
"d c #c3c3c3",
"g c #00ffff",
"b c #ffdca8",
"# c #0000ff",
". c None",
"e c #585858",
"a c #ffffff",
"......................",
"......................",
"......................",
"......................",
"......................",
".......#...aaaaaaaaa..",
"......##...abcccccde..",
".....#a#...abcffffae..",
"....#aa#########ffae..",
"...#ggaaaaaaaaa#ffae..",
"..#gggggggggggg#ffae..",
"..h#ggggggggggg#ffae..",
"...h#gg#########ffae..",
"....h#g#hhhabcffffae..",
".....h##...abdaaaaae..",
"......h#...aeeeeeeee..",
"............hhhhhhh...",
"......................",
"......................",
"......................",
"......................",
"......................"};
