/* XPM */
static char*diashow[]={
"18 18 8 1",
"e c #808080",
"c c #ffa858",
"f c #00ffff",
"a c #ff8000",
"d c #ffdca8",
". c None",
"b c #585858",
"# c #ffffff",
"..................",
".#########........",
".#aaaaaaab........",
".#a###########....",
".#a#cccccccccb....",
".#a#c############.",
".#a#c#ddddddddddb.",
".#a#c#deeeeeee#db.",
".#a#c#deffffff#db.",
".#b#c#deffffff#db.",
"...#c#deffffff#db.",
"...#c#deffffff#db.",
"...#c#deffffff#db.",
"...#b#deffffff#db.",
".....#d########db.",
".....#ddddddddddb.",
".....#bbbbbbbbbbb.",
".................."};
