/* XPM */
static char*copy[]={
"18 18 11 1",
"c c #808080",
"d c #ffa858",
"f c #a0a0a0",
"h c #00ffff",
"a c #ffdca8",
"e c #0000ff",
". c None",
"g c #c0ffff",
"b c #585858",
"i c #dcdcdc",
"# c #ffffff",
"..................",
".###########......",
".#aaaaaaaaab......",
".#acccccc#ab......",
".#acddddd#ab......",
".#acddddd#ab......",
".#acddc##########.",
".#acddeeaaaaaaaab.",
".#a###e#efcccc#ab.",
".eeeeee##edddd#ab.",
".e######ggeddd#ab.",
".ehhhhhggggedd#ab.",
".ehhhhhhhheddd#ab.",
".eeeeeehhedddd#ab.",
"......ehei#####ab.",
"......eeaaaaaaaab.",
"......cbbbbbbbbbb.",
".................."};
