/* XPM */
static char*catopen[]={
"18 18 13 1",
"i c #808080",
"f c #ffa858",
"d c #a0a0a0",
"g c #c3c3c3",
"k c #00ffff",
"a c #000000",
"b c #ffdca8",
"h c #0000ff",
". c None",
"j c #c0ffff",
"c c #585858",
"e c #dcdcdc",
"# c #ffffff",
"..................",
"....#############.",
".aaaaaaabbbbbbbbc.",
".a####deadcccccbc.",
".a####d##affff#bc.",
".a####dccaffff#bc.",
".a####gdgaffff#bc.",
".a#####hhiffff#bc.",
".a#####h#hffff#bc.",
".a#hhhhh##hfff#bc.",
".a#h#####jjhff#bc.",
".a#hkkkkjjjjhf#bc.",
".aahkkkkkkkhff#bc.",
"...hhhhhkkhfff#bc.",
"....#ffhkh#####bc.",
"....#ffhhbbbbbbbc.",
"....#cciccccccccc.",
".................."};
