/* XPM */
static char*picopen[]={
"18 18 13 1",
"# c #808080",
"i c #ffa858",
"h c #a0a0a0",
"a c #c3c3c3",
"e c #00ffff",
"f c #000000",
"k c #ff8000",
"g c #ffdca8",
"b c #0000ff",
". c None",
"d c #c0ffff",
"j c #585858",
"c c #ffffff",
"...........#a.....",
"...........bb.....",
"...........bcb....",
".......bbbbbccb...",
".......bcccccddb..",
".......beeeeddddb.",
".ffff#.beeeeeeeb..",
".fgcgffbbbbbeeb...",
".fcgcgccgccbeb....",
".fggfffffffbh#....",
".fc#fggiiiijkf....",
".fgf#gigiiikf#....",
".f#fggiiikikf.....",
".ff#gigiiikf#.....",
".ffggiiikikf......",
".f#kkkkkkkf#......",
".ffffffffff.......",
".................."};
