/* XPM */
static char*picforw[]={
"22 22 10 1",
"c c #808080",
"f c #ffa858",
"h c #a0a0a0",
"d c #c3c3c3",
"g c #00ffff",
"b c #ffdca8",
"a c #0000ff",
". c None",
"e c #585858",
"# c #ffffff",
"......................",
"......................",
"......................",
"......................",
"......................",
"..#########...a.......",
"..#bcccccde...aa......",
"..#bcffff#e...a#ad....",
"..#bcfaaaaaaaaa##a....",
"..#bcfa#########gga...",
"..#bcfagggggggggggga..",
"..#bcfagggggggggggah..",
"..#bcfaaaaaaaaaggah...",
"..#bcffff#ehhhagah....",
"..#bd#####e...aah.....",
"..#eeeeeeee...ah......",
"...hhhhhhhh...........",
"......................",
"......................",
"......................",
"......................",
"......................"};
