/* XPM */
static char*picinfo[]={
"18 18 7 1",
"b c #a0a0a0",
"d c #c0c0ff",
"e c #ffdca8",
"c c #0000ff",
". c None",
"a c #585858",
"# c #ffffff",
"..................",
"....#############.",
"....#aaaaaaaaaaba.",
"....#accccccccc#a.",
"....#b##########a.",
"..bcccccdeeeeeeea.",
".bccddcccdeeeeeea.",
".ccd#edccceeeeeea.",
".ccd#eeccceeeeeea.",
".bcc#edccdeeeeeea.",
"....#dccdeeeeeeea.",
"....dcceeeeeeeeea.",
"....ccdeeeeeeeeea.",
"....ccdaaaaaaaaaa.",
"..................",
"....ccb...........",
"....ccb...........",
".................."};
