/* XPM */
static char*manni[]={
"32 32 12 1",
"c c #808080",
"d c #008000",
"h c #000080",
"e c #00ff00",
"# c #000000",
"b c #bfbfbf",
"i c #800000",
"g c #0000ff",
". c None",
"f c #585858",
"a c #ffffff",
"j c #ff0000",
".##...###.......................",
"#ab#.#abb#..c######c............",
"#bb#b#bbc####dddddd###c.........",
"#bc#b#bbc#dddddddddddd##........",
"#ab#b#abb#edeeeeeedddddd#.......",
"#bb##f####ddddeeebdgddddd#c.....",
"#bc###abbc########hgh######c....",
"#acbb#bbcc#hhhhhhggaggh##d#cc...",
"#bbbbc#####hhhh##hggghh#ddd#c...",
"#bbbbbb#cc#ggg#dd#ggggg#ddd#cc..",
"#bcccccbc#####deed#h###dddd##c..",
"c#bbbcbc#dddddeeeeddddeddddd#cc.",
"cc#######deeeeeeeeeeeededddd#cc.",
".cc#dddddddc#dddddd#cddedddd#cc.",
"..c##ddeedd#babbbbbb#deeeddd#ccc",
"..c##dddeed#iaiiiiai#deddddd#ccc",
"...c#dddbbd#iiiiiiii#deed#####cc",
"...#idddeeb#biijjiib#eee#bbcc#cc",
"..cii#ddeeb#bajiajab#ee#bbabbc#c",
"..#jb#ddddde#bbbbbb#ee#babcabc#c",
".#ijjj#ddddee######eed#abc#cac#c",
"#iajiai#dddddeeeeeedd#bac###ab#c",
"#ajiiaji#dddddddddddd#cc####ab#c",
"#bbiajiij#dddddddddddd###i##ac#c",
"c##ajii#ai##ddddddddd##i##c#ac#c",
".c#bbi##aji###dddd####ia##ccbc#.",
"..c#ii##aabii######iibab#c#bb#c.",
"...c##c#abbii#cccc#iiabb##bbc#c.",
"....ccc#aabi#cccccc#iaab##bc#c..",
"......cc#iii#cccccc#iii#cc##c...",
"........c###ccc....c###cc.cc....",
".........ccccc......ccccc......."};
