/* XPM */
static char*newwin[]={
"18 18 12 1",
"h c #808080",
"i c #ffa858",
"b c #a0a0a0",
"f c #c05800",
"d c #ff8000",
"j c #800000",
"g c #ffdca8",
"c c #0000ff",
". c None",
"a c #585858",
"# c #ffffff",
"e c #ff0000",
"..................",
".##############...",
".#aaaaaaaaaaab#...",
".#accccccccccbdee.",
".#b##########deef.",
".#ghhhhhhhhhbeee..",
".#ghiiiiiiiieeef..",
".#ghiiiiiiideej...",
".#ghiiiiiiieeea...",
".#gediiiiideeda...",
".#ieeiiiiieee#a...",
".#ieediiideei#a...",
".#gieedddeed##a...",
".#ggeeeeeedggga...",
".#aaafeeefaaaaa...",
"......eee.........",
".......e..........",
".................."};
