/* XPM */
static char*picliste[]={
"18 18 9 1",
"b c #a0a0a0",
"f c #00ffff",
"e c #000000",
"d c #ffdca8",
"c c #0000ff",
". c None",
"g c #c0ffff",
"a c #585858",
"# c #ffffff",
"..................",
".#############....",
".#aaaaaaaaaaba....",
".#accccccccc#a....",
".#b##########a....",
".#ddddddddddda....",
".#ddddddddddda....",
".#deeedcccccccc...",
".#dddddc######c...",
".#deeedcfgg##c....",
".#dddddcfffg#c....",
".#deeedcffffg#c...",
".#dddddcfffffg#c..",
".#deeedcfccfffg#c.",
".#dddddccddcfffc..",
".#ddddddddddcfc...",
".#aaaaaaaaaaac....",
".................."};
