/* XPM */
static char*diastop[]={
"18 18 10 1",
"h c #808080",
"d c #ffa858",
"g c #00ffff",
"a c #ff8000",
"e c #ffdca8",
". c None",
"b c #585858",
"# c #ffffff",
"c c #ff0000",
"f c #00c0c0",
"..................",
".#########........",
".#aaaaaaab........",
".#a##########.....",
".#a#aaaaaaaac.....",
".#a#cc#####ccc###.",
".#a#accdeeccccceb.",
".#a#a#cccccccf#eb.",
".#a#a#ecccccgg#eb.",
".#b#a#eccccggg#eb.",
"...#a#dccccdgg#eb.",
"...#adccggccdg#eb.",
"...#dccdgggccd#eb.",
"....ccehggggcc#eb.",
"....c#e######c#eb.",
".....#eeeeeeeeeeb.",
".....#bbbbbbbbbbb.",
".................."};
