/* XPM */
static char*thumbback[]={
"22 22 8 1",
"b c #a0a0a0",
"e c #c3c3c3",
"f c #00ffff",
"d c #ffdca8",
"c c #0000ff",
". c None",
"a c #585858",
"# c #ffffff",
"......................",
"......................",
"......................",
".....##############...",
".....#aaaaaaaaaaaba...",
".....#acccccccccc#a...",
".....#b###########a...",
".....#ddcddddddddda...",
".....#dccddddddddda...",
".....ec#cddddddddda...",
".....c##cccccccccda...",
"....cff#########cda...",
"...cffffffffffffcda...",
"...bcfffffffffffcda...",
"....bcffcccccccccda...",
".....ecfcbbbbbbddda...",
".....#bccddddddddda...",
".....#dbcddddddddda...",
".....#aabaaaaaaaaaa...",
"......................",
"......................",
"......................"};
