/* XPM */
static char*thumclose[]={
"18 18 8 1",
"d c #ffa858",
"f c #ff8000",
"a c #ffdca8",
". c None",
"e c #c00000",
"b c #585858",
"# c #ffffff",
"c c #ff0000",
"..................",
".########.#######.",
".#aaaaaab.#aaaaab.",
".#aaaaaab.#aaaaab.",
".#aaaccab.#aaaaab.",
".#aaacccd.#aaacab.",
".#aaaaccc.#aacccd.",
".#aaaaaccc#acccce.",
".#bbbbbdccccccceb.",
".........ccccce...",
".########cccce###.",
".#aaaaaaecccccaab.",
".#aaaaafcceacccab.",
".#aaaafcceaaacccd.",
".#aaafcceaaaaaccc.",
".#aaacceaaaaaaacc.",
".#bbdcebbbbbbbbdc.",
".................."};
