/* XPM */
static char*thumbforw[]={
"22 22 7 1",
"b c #a0a0a0",
"e c #00ffff",
"d c #ffdca8",
"c c #0000ff",
". c None",
"a c #585858",
"# c #ffffff",
"......................",
"......................",
"......................",
"...##############.....",
"...#aaaaaaaaaaaba.....",
"...#acccccccccc#a.....",
"...#b###########a.....",
"...#dddddddddcdda.....",
"...#dddddddddccda.....",
"...#dddddddddc#cb.....",
"...#dccccccccc##c.....",
"...#dc#########eec....",
"...#dceeeeeeeeeeeec...",
"...#dceeeeeeeeeeecb...",
"...#dccccccccceecb....",
"...#ddbbbbbbbcecb.....",
"...#dddddddddccba.....",
"...#dddddddddcbda.....",
"...#aaaaaaaaabaaa.....",
"......................",
"......................",
"......................"};
