/* XPM */
static char*thumpos[]={
"18 18 8 1",
"d c #a0a0a0",
"f c #00ffff",
"b c #ffdca8",
"a c #0000ff",
". c None",
"c c #c0ffff",
"e c #585858",
"# c #ffffff",
"..................",
".#####a##.#######.",
".#bbbacad.#bbbbbe.",
".#bbac##a.#bbbbbe.",
".#baaacaaa#bbbbbe.",
".#bbbacad.#abbbbe.",
".#bbbafad.#aabbbe.",
".#bbbafaaaaa#abbe.",
".#eeeafffcccccaee.",
".....afaaaaaca....",
".####afa###aa####.",
".#bbbafabbbabbbbe.",
".#baaafaaabbbbbbe.",
".#bbafffabbbbbbbe.",
".#bbbafabbbbbbbbe.",
".#bbbbabbbbbbbbbe.",
".#eeeeeeeeeeeeeee.",
".................."};
