/* XPM */
static char*thumbnail[]={
"18 18 7 1",
"d c #00ffff",
"a c #ffdca8",
"c c #0000ff",
". c None",
"e c #c0ffff",
"b c #585858",
"# c #ffffff",
"..................",
".########.#######.",
".#aaaaaab.#aaaaab.",
".#aaaaaab.#aaaaab.",
".#aaccccccccaaaab.",
".#aac######caaaab.",
".#aacdee##caaaaab.",
".#aacddde#caaaaab.",
".#bbcdddde#cbbbbb.",
"....cddddde#c.....",
".###cdccddde#c###.",
".#aaccaacdddcaaab.",
".#aaaaaaacdcaaaab.",
".#aaaaaaaacaaaaab.",
".#aaaaaaaaaaaaaab.",
".#aaaaaaaaaaaaaab.",
".#bbbbbbbbbbbbbbb.",
".................."};
