/* XPM */
static char*diashow[]={
"22 22 3 1",
"# c #000000",
". c None",
"a c #dcdcdc",
"......................",
"......................",
"......................",
"....###.aaaaaa.###....",
"....#a#........#a#....",
"....##############....",
"....###........###....",
"....#a#.aaaaaa.#a#....",
"....###.aaa#aa.###....",
"....###.aa##aa.###....",
"....#a#.a#a#aa.#a#....",
"....###.aaa#aa.###....",
"....###.a####a.###....",
"....#a#.aaaaaa.#a#....",
"....###........###....",
"....##############....",
"....#a#........#a#....",
"....###.aaaaaa.###....",
"....###.aa##aa.###....",
"......................",
"......................",
"......................"};
