/* XPM */
static char*thumbclick[]={
"22 22 7 1",
"c c #808080",
"a c #c3c3c3",
"d c #000000",
"b c #303030",
". c None",
"e c #dcdcdc",
"# c #ffffff",
"......................",
"......................",
"......................",
"......................",
"....#######.######....",
"....#aaaaab.#aaaab....",
"....#aaaaac.aaaaab....",
"....#aadddddddaaab....",
"....#aad#####daaab....",
"....#bcd####baaaab....",
".......d####ebaaab....",
"....###d#####ebcbb....",
"....#aad#be#eb........",
"....#aadd.beba####....",
"....#aaac.abaaaaab....",
"....#aaab.#aaaaaab....",
"....#aaab.#aaaaaab....",
"....#bbbb.#bbbbbbb....",
"......................",
"......................",
"......................",
"......................"};
